<svg width="211" height="55" viewBox="0 0 211 55" fill="none" xmlns="http://www.w3.org/2000/svg">
<path d="M22.9111 41.2928V44.9489H30.4865C30.5593 44.9483 30.6315 44.9621 30.699 44.9896C30.7664 45.0171 30.8276 45.0577 30.8792 45.1091C30.9308 45.1605 30.9717 45.2216 30.9995 45.2889C31.0273 45.3562 31.0414 45.4283 31.0411 45.5011V47.1322C31.0443 47.207 31.0322 47.2816 31.0058 47.3516C30.9793 47.4216 30.939 47.4856 30.8872 47.5396C30.8354 47.5935 30.7732 47.6365 30.7043 47.6658C30.6355 47.6951 30.5614 47.7102 30.4865 47.7101H22.9111V51.2543H31.7658C31.839 51.2534 31.9117 51.2671 31.9795 51.2946C32.0473 51.3221 32.109 51.3629 32.1609 51.4145C32.2127 51.4662 32.2538 51.5277 32.2816 51.5954C32.3093 51.6631 32.3233 51.7357 32.3227 51.8089V53.44C32.3255 53.5148 32.3132 53.5894 32.2865 53.6592C32.2597 53.7291 32.2191 53.7929 32.1671 53.8466C32.1151 53.9004 32.0527 53.9431 31.9837 53.9721C31.9147 54.0012 31.8406 54.0159 31.7658 54.0156H20.7068C20.6322 54.0187 20.5578 54.0068 20.488 53.9805C20.4181 53.9541 20.3543 53.914 20.3003 53.8624C20.2464 53.8109 20.2034 53.7489 20.1739 53.6804C20.1445 53.6118 20.1292 53.538 20.1289 53.4633V39.0768C20.1283 39.0038 20.1422 38.9314 20.1699 38.8639C20.1975 38.7963 20.2384 38.7349 20.29 38.6833C20.3416 38.6317 20.403 38.5909 20.4705 38.5632C20.5381 38.5356 20.6105 38.5216 20.6835 38.5223H31.7658C31.839 38.5213 31.9117 38.535 31.9795 38.5625C32.0473 38.59 32.109 38.6308 32.1609 38.6825C32.2127 38.7341 32.2538 38.7956 32.2816 38.8633C32.3093 38.9311 32.3233 39.0036 32.3227 39.0768V40.708C32.3255 40.7827 32.3132 40.8573 32.2865 40.9272C32.2597 40.9971 32.2191 41.0608 32.1671 41.1146C32.1151 41.1684 32.0527 41.211 31.9837 41.2401C31.9147 41.2691 31.8406 41.2839 31.7658 41.2835L22.9111 41.2928Z" fill="#1B497A"/>
<path d="M50.5374 46.3214C50.5374 51.4198 47.5968 53.3678 43.265 53.8781C42.0565 53.999 40.842 54.0504 39.6276 54.0319H37.1133C37.0384 54.0357 36.9634 54.0242 36.8931 53.9982C36.8227 53.9722 36.7583 53.9322 36.7038 53.8805C36.6493 53.8289 36.6059 53.7667 36.5762 53.6978C36.5464 53.6289 36.531 53.5547 36.5308 53.4797V39.0769C36.5301 39.0035 36.5442 38.9307 36.5721 38.8628C36.6001 38.7949 36.6413 38.7333 36.6935 38.6817C36.7456 38.63 36.8075 38.5892 36.8756 38.5619C36.9437 38.5345 37.0166 38.521 37.09 38.5223H38.7514C40.4571 38.5223 42.0533 38.5223 43.4887 38.7227C47.7109 39.2773 50.5374 41.2929 50.5374 46.3214ZM47.7552 46.3004C47.7552 43.3318 46.0705 41.8917 43.512 41.5142C42.1269 41.3437 40.7316 41.2697 39.3363 41.2929V51.2637C40.7507 51.2404 42.0533 51.1961 43.2184 51.0866C45.9354 50.8186 47.7552 49.3576 47.7552 46.3004Z" fill="#1B497A"/>
<path d="M54.8341 38.5552H56.4653C56.5394 38.5527 56.6134 38.5652 56.6826 38.592C56.7517 38.6188 56.8148 38.6594 56.8679 38.7112C56.921 38.763 56.9631 38.825 56.9916 38.8935C57.0201 38.9621 57.0345 39.0356 57.0338 39.1098V53.5126C57.0351 53.5851 57.0218 53.6571 56.9948 53.7243C56.9678 53.7916 56.9275 53.8528 56.8765 53.9043C56.8255 53.9557 56.7647 53.9965 56.6976 54.024C56.6306 54.0516 56.5587 54.0655 56.4863 54.0649H54.8551C54.781 54.0677 54.707 54.0555 54.6377 54.029C54.5684 54.0025 54.5051 53.9622 54.4518 53.9106C54.3985 53.859 54.3561 53.7972 54.3273 53.7288C54.2985 53.6604 54.2839 53.5868 54.2842 53.5126V39.1098C54.2833 39.0371 54.2969 38.965 54.3241 38.8976C54.3514 38.8302 54.3918 38.7689 54.4429 38.7173C54.4941 38.6656 54.5551 38.6247 54.6223 38.5969C54.6894 38.5691 54.7614 38.5549 54.8341 38.5552Z" fill="#1B497A"/>
<path d="M75.4651 53.701C75.4651 53.899 75.3137 54.0318 75.0713 54.0318H73.1466C72.9781 54.0169 72.8165 53.9581 72.6779 53.8611C72.5393 53.7642 72.4285 53.6327 72.3567 53.4796L71.35 51.3079H64.5622L63.5533 53.4796C63.482 53.6327 63.3717 53.7642 63.2334 53.8612C63.0952 53.9581 62.9339 54.017 62.7657 54.0318H60.8386C60.6056 54.0318 60.4448 53.899 60.4448 53.701C60.4485 53.623 60.4709 53.5471 60.5101 53.4796L67.1441 39.4753C67.5169 38.6783 67.7359 38.5222 67.955 38.5222C68.174 38.5222 68.393 38.6783 68.7659 39.4753L75.3999 53.4796C75.439 53.5471 75.4614 53.623 75.4651 53.701ZM70.1243 48.6491L67.955 43.9888L65.7879 48.6491H70.1243Z" fill="#1B497A"/>
<path d="M37.0363 0.302971C36.5866 0.580261 36.1579 0.84823 35.7361 1.12785C35.1066 1.06663 34.4739 1.04561 33.8417 1.06493C25.5253 1.27465 19.8606 7.46592 20.0937 15.9314C20.1214 16.9681 20.2391 18.0003 20.4455 19.0166C20.1799 19.5665 19.9026 20.1444 19.6253 20.7316C19.1818 19.3065 18.9387 17.8266 18.9029 16.3346C18.6699 7.5335 25.2876 0.223742 33.6623 0.00470532C34.7946 -0.0236737 35.9265 0.076389 37.0363 0.302971Z" fill="#A4D4E5"/>
<g opacity="0.3">
<path d="M35.7359 1.12769C26.7298 6.95313 23.9709 11.6834 20.436 19.0164C20.2296 18.0002 20.1118 16.9679 20.0841 15.9313C19.8674 7.46576 25.5251 1.27449 33.8322 1.06478C34.4674 1.04506 35.1033 1.06607 35.7359 1.12769Z" fill="#A4D4E5"/>
</g>
<path opacity="0.4" d="M48.039 12.3426C46.4179 12.8435 44.8554 13.5177 43.3787 14.3535C43.2006 14.4462 43.0278 14.5488 42.8614 14.6611C42.6682 13.0017 42.0011 11.4331 40.9399 10.1428C39.8788 8.85251 38.4684 7.89522 36.8775 7.38537C35.2866 6.87553 33.5825 6.83473 31.969 7.26784C30.3555 7.70095 28.9009 8.58965 27.7792 9.82765C26.6575 11.0657 25.9161 12.6006 25.6437 14.2488C25.3713 15.8971 25.5794 17.5889 26.2432 19.122C26.907 20.655 27.9983 21.9645 29.3866 22.8937C30.775 23.8229 32.4016 24.3325 34.072 24.3616C34.3487 24.3683 34.6257 24.3597 34.9015 24.336C34.8083 24.5503 34.7244 24.7577 34.6522 24.9628C34.0346 26.6173 33.54 28.3152 33.1725 30.0426C26.6224 29.6604 21.7547 25.3682 20.4312 19.0162C23.966 11.6831 26.7226 6.95287 35.731 1.12744C42.174 1.68435 46.8367 6.02314 48.039 12.3426Z" fill="#69ACD1"/>
<path opacity="0.5" d="M48.3444 15.2017C48.5611 23.6952 42.8964 29.8468 34.5963 30.0659C34.1303 30.0775 33.6503 30.0659 33.1982 30.0426C33.5657 28.3152 34.0603 26.6173 34.6779 24.9628C34.7501 24.7577 34.834 24.5504 34.9272 24.336C37.0847 24.1697 39.1024 23.2042 40.5854 21.6285C42.0684 20.0528 42.91 17.9804 42.9454 15.8169C42.9513 15.4276 42.9318 15.0385 42.8871 14.6518C43.0536 14.5395 43.2263 14.4368 43.4044 14.3442C44.8811 13.5084 46.4436 12.8342 48.0648 12.3333C48.2418 13.2794 48.3354 14.2392 48.3444 15.2017Z" fill="#5379BA"/>
<path d="M33.1773 30.0426C33.0701 30.5226 32.9722 31.0049 32.8744 31.4989L31.2036 31.0445C25.7324 29.961 21.3074 26.1512 19.625 20.7918V20.7428C19.9023 20.1556 20.1796 19.5778 20.4452 19.0278C21.7548 25.3682 26.6272 29.6604 33.1773 30.0426Z" fill="#69ACD1"/>
<path d="M49.6978 11.8672C49.1222 12.0163 48.5746 12.1748 48.0387 12.3332C46.8363 6.01379 42.1736 1.67501 35.7354 1.1181C36.1571 0.838475 36.5859 0.570504 37.0356 0.293213C41.7192 1.18334 45.9625 4.14033 48.0806 8.30668C48.0992 8.34396 48.7354 9.75838 49.6978 11.8672Z" fill="#69ACD1"/>
<path d="M45.6978 35.0197L32.8818 31.5081C32.9797 31.0141 33.0776 30.5318 33.1848 30.0518C33.6508 30.0797 34.1168 30.0867 34.5829 30.0751C42.8923 29.856 48.5639 23.7044 48.3309 15.2109C48.3129 14.2508 48.2108 13.2941 48.0256 12.3518C48.5616 12.184 49.1092 12.0256 49.6847 11.8857C51.1574 15.1107 53.3641 19.9784 55.2165 24.0679C47.1798 24.3335 45.4158 31.9439 45.6978 35.0197Z" fill="#5379BA"/>
<path d="M58.6326 31.5152C58.297 30.9219 57.8069 30.4305 57.2145 30.0933C56.622 29.756 55.9494 29.5855 55.2678 29.5998C53.1451 29.6511 51.4836 31.4989 51.5396 33.7195C51.5495 34.4338 51.7489 35.1327 52.1174 35.7447C52.4858 36.3568 53.0101 36.8601 53.6367 37.2031L45.6978 35.0198C45.4159 31.9439 47.1798 24.3336 55.2306 24.0493C55.3541 24.3289 55.4775 24.5969 55.601 24.8672C55.8108 25.3332 56.0205 25.783 56.2185 26.2187C56.8081 27.5236 57.3417 28.677 57.7495 29.5835C57.8636 29.8328 57.9685 30.0705 58.0641 30.2825C58.367 30.9466 58.5674 31.3847 58.6326 31.5152Z" fill="#495884"/>
<path d="M57.1531 33.7505C57.1746 34.1893 57.0215 34.6189 56.7272 34.9451C56.4328 35.2713 56.0213 35.4676 55.5825 35.4911C55.4503 35.493 55.3182 35.4805 55.1887 35.4539C54.827 35.3605 54.5065 35.1496 54.2775 34.8544C54.0485 34.5592 53.924 34.1963 53.9234 33.8227C53.9044 33.3857 54.0587 32.9588 54.3529 32.635C54.647 32.3112 55.0571 32.1167 55.494 32.0938C55.9291 32.1031 56.3439 32.2794 56.6527 32.586C56.9615 32.8926 57.1406 33.3062 57.1531 33.7412V33.7505Z" fill="#495884"/>
<path d="M42.9248 15.8174C42.8895 17.9809 42.0479 20.0534 40.5649 21.629C39.0818 23.2047 37.0642 24.1702 34.9067 24.3365C36.4656 20.4731 38.8843 17.0897 42.8666 14.6616C42.9109 15.0452 42.9303 15.4313 42.9248 15.8174Z" fill="#5379BA"/>
<path d="M42.8664 14.6614C38.8841 17.0894 36.4654 20.4728 34.9065 24.3362C34.6307 24.36 34.3537 24.3686 34.077 24.3619C32.4059 24.3332 30.7785 23.8239 29.3894 22.8946C28.0003 21.9653 26.9082 20.6556 26.244 19.122C25.5797 17.5884 25.3713 15.8959 25.6436 14.247C25.916 12.598 26.6576 11.0625 27.7798 9.82397C28.902 8.58547 30.3572 7.69647 31.9714 7.26331C33.5855 6.83014 35.2903 6.87116 36.8818 7.38145C38.4733 7.89174 39.884 8.8497 40.9454 10.1407C42.0067 11.4318 42.6736 13.0012 42.8664 14.6614Z" fill="#69ACD1"/>
<path d="M19.1988 27.2557C19.1988 27.5214 18.8329 27.6868 18.0011 27.6868H15.0721C14.4383 27.6868 13.9396 27.321 13.4735 26.8549L6.25 18.8345L4.38586 20.8967V26.8899C4.38679 26.9994 4.36592 27.108 4.32445 27.2093C4.28297 27.3107 4.22174 27.4028 4.14431 27.4802C4.06688 27.5576 3.97478 27.6189 3.87343 27.6603C3.77208 27.7018 3.6635 27.7227 3.554 27.7218H1.09102C0.978953 27.7262 0.867138 27.7079 0.762287 27.6681C0.657437 27.6283 0.561691 27.5677 0.480772 27.4901C0.399854 27.4124 0.335419 27.3193 0.291332 27.2161C0.247245 27.113 0.224402 27.002 0.224174 26.8899V5.25424C0.222925 5.14465 0.243597 5.03591 0.28496 4.93442C0.326324 4.83293 0.387546 4.74073 0.465043 4.66323C0.542539 4.58574 0.634741 4.52451 0.736232 4.48314C0.837724 4.44178 0.946473 4.42112 1.05606 4.42237H3.51904C3.63119 4.41765 3.74315 4.43568 3.84815 4.47537C3.95314 4.51506 4.04902 4.57558 4.13 4.6533C4.21099 4.73102 4.27541 4.82433 4.31939 4.92761C4.36336 5.03088 4.38596 5.14199 4.38586 5.25424V14.7404L12.9399 5.28686C13.406 4.82083 13.9046 4.45499 14.5361 4.45499H17.4651C18.297 4.45499 18.6652 4.62043 18.6652 4.8884C18.66 4.96481 18.6396 5.03941 18.6052 5.10783C18.5707 5.17625 18.523 5.23712 18.4648 5.28686L8.97865 15.8053L18.9984 26.8549C19.0573 26.9046 19.1054 26.9658 19.1399 27.0347C19.1744 27.1036 19.1944 27.1788 19.1988 27.2557Z" fill="#212E32"/>
<path d="M66.7109 3.74902C70.1736 3.74902 72.9372 4.94673 75.032 7.01127C75.3675 7.34448 75.4654 7.5775 75.4654 7.77556C75.4555 7.88035 75.4238 7.98192 75.3725 8.0738C75.3211 8.16568 75.2512 8.24584 75.1671 8.30917L73.303 9.67465C73.0738 9.85022 72.7924 9.94377 72.5037 9.9403C72.1611 9.92802 71.828 9.82423 71.5391 9.6397C70.2411 8.77521 69.2415 8.07616 66.7109 8.07616C61.7197 8.07616 58.5903 11.4386 58.5903 15.9312C58.5903 20.757 61.7197 24.0518 66.7109 24.0518C69.0411 24.0518 70.141 23.4879 71.5717 22.4883C71.8537 22.2894 72.1912 22.1842 72.5364 22.1877C72.8254 22.1841 73.1071 22.2786 73.3356 22.4557L75.1764 23.7885C75.2633 23.8491 75.3353 23.9286 75.387 24.021C75.4387 24.1134 75.4687 24.2164 75.4747 24.3221C75.4747 24.5202 75.3769 24.7532 75.0413 25.0864C72.9115 27.1836 70.1829 28.3487 66.7202 28.3487C59.3313 28.3487 54.2725 23.3225 54.2725 15.9009C54.2632 8.98259 59.3569 3.74902 66.7109 3.74902Z" fill="#212E32"/>
<path d="M101.086 5.25424V26.8899C101.087 26.9994 101.066 27.108 101.025 27.2093C100.983 27.3107 100.922 27.4028 100.845 27.4802C100.767 27.5576 100.675 27.6189 100.574 27.6603C100.472 27.7018 100.364 27.7227 100.254 27.7218H97.7913C97.6792 27.7262 97.5674 27.7079 97.4625 27.6681C97.3577 27.6283 97.262 27.5677 97.181 27.4901C97.1001 27.4124 97.0357 27.3193 96.9916 27.2161C96.9475 27.113 96.9247 27.002 96.9244 26.8899V18.196H85.1081V26.8852C85.1091 26.9947 85.0882 27.1033 85.0467 27.2047C85.0053 27.306 84.944 27.3981 84.8666 27.4755C84.7891 27.553 84.6971 27.6142 84.5957 27.6557C84.4944 27.6972 84.3858 27.718 84.2763 27.7171H81.8133C81.7013 27.7215 81.5896 27.7032 81.4849 27.6634C81.3802 27.6236 81.2846 27.563 81.2038 27.4853C81.1231 27.4076 81.0589 27.3144 81.0151 27.2113C80.9712 27.1082 80.9487 26.9973 80.9488 26.8852V5.25424C80.9475 5.14465 80.9682 5.03591 81.0096 4.93442C81.0509 4.83293 81.1122 4.74073 81.1897 4.66323C81.2671 4.58574 81.3594 4.52451 81.4608 4.48314C81.5623 4.44178 81.6711 4.42112 81.7806 4.42237H84.2437C84.3556 4.41797 84.4673 4.43624 84.572 4.47607C84.6767 4.51591 84.7723 4.57649 84.8531 4.65417C84.9338 4.73186 84.998 4.82506 85.0418 4.92817C85.0857 5.03129 85.1082 5.1422 85.1081 5.25424V14.0413H96.9244V5.25424C96.9232 5.14465 96.9439 5.03591 96.9852 4.93442C97.0266 4.83293 97.0878 4.74073 97.1653 4.66323C97.2428 4.58574 97.335 4.52451 97.4365 4.48314C97.538 4.44178 97.6467 4.42112 97.7563 4.42237H100.219C100.331 4.41765 100.443 4.43568 100.548 4.47537C100.653 4.51506 100.749 4.57558 100.83 4.6533C100.911 4.73102 100.976 4.82433 101.02 4.92761C101.064 5.03088 101.086 5.14199 101.086 5.25424Z" fill="#212E32"/>
<path d="M109.574 4.42237H112.037C112.149 4.41765 112.261 4.43568 112.366 4.47537C112.471 4.51506 112.567 4.57558 112.648 4.6533C112.729 4.73102 112.793 4.82433 112.837 4.92761C112.881 5.03088 112.904 5.14199 112.904 5.25424V15.9055C112.904 21.6633 114.668 24.0611 119.393 24.0611C124.452 24.0611 125.918 21.6656 125.918 15.9055V5.25424C125.917 5.14465 125.937 5.03591 125.979 4.93442C126.02 4.83293 126.081 4.74073 126.159 4.66323C126.236 4.58574 126.328 4.52451 126.43 4.48314C126.531 4.44178 126.64 4.42112 126.75 4.42237H129.213C129.325 4.41797 129.436 4.43624 129.541 4.47607C129.646 4.51591 129.741 4.57649 129.822 4.65417C129.903 4.73186 129.967 4.82506 130.011 4.92817C130.055 5.03129 130.077 5.1422 130.077 5.25424V16.77C130.077 25.3916 125.617 28.3859 119.393 28.3859C112.571 28.3859 108.81 24.6576 108.775 16.968L108.742 5.25191C108.741 5.14251 108.762 5.03403 108.804 4.93281C108.845 4.83159 108.906 4.73966 108.984 4.66242C109.061 4.58517 109.153 4.52415 109.255 4.48293C109.356 4.44171 109.465 4.42112 109.574 4.42237Z" fill="#212E32"/>
<path d="M158.173 21.1976C158.173 27.1885 153.979 27.7221 147.722 27.7221H138.602C138.49 27.7265 138.378 27.7082 138.273 27.6684C138.169 27.6285 138.073 27.5679 137.992 27.4903C137.912 27.4126 137.847 27.3194 137.804 27.2163C137.76 27.1131 137.737 27.0022 137.737 26.8902V5.25453C137.736 5.14494 137.757 5.03621 137.798 4.93472C137.84 4.83323 137.901 4.74103 137.978 4.66353C138.056 4.58603 138.148 4.5248 138.249 4.48344C138.351 4.44208 138.46 4.42141 138.569 4.42266H146.725C152.648 4.42266 156.512 4.92132 156.512 11.4784C156.512 13.2097 156.178 14.475 155.58 15.4397C157.199 16.3718 158.173 18.0682 158.173 21.1976ZM144.56 8.58202H141.897V14.1418H146.324C150.353 14.1418 152.382 14.009 152.382 11.4784C152.382 9.04805 150.551 8.6496 146.757 8.58202H144.56ZM154.046 21.1976C154.046 18.1008 151.884 18.0355 148.088 18.0355H141.897V23.826H147.657C151.683 23.826 154.046 23.7258 154.046 21.1976Z" fill="#212E32"/>
<path d="M168.994 8.58202V14.0742H180.342C180.452 14.073 180.56 14.0936 180.662 14.135C180.764 14.1763 180.856 14.2375 180.934 14.315C181.011 14.3924 181.073 14.4846 181.114 14.5861C181.156 14.6876 181.177 14.7964 181.176 14.9061V17.3691C181.181 17.4814 181.163 17.5936 181.123 17.6987C181.083 17.8039 181.022 17.8999 180.944 17.9809C180.866 18.0619 180.773 18.1263 180.669 18.1701C180.566 18.214 180.454 18.2363 180.342 18.2359H168.994V23.5557H182.276C182.385 23.5545 182.494 23.5751 182.596 23.6165C182.697 23.6579 182.789 23.7191 182.867 23.7966C182.944 23.8741 183.006 23.9663 183.047 24.0678C183.088 24.1693 183.109 24.278 183.108 24.3876V26.8506C183.112 26.9627 183.094 27.0744 183.054 27.1793C183.014 27.2841 182.954 27.3799 182.876 27.4608C182.798 27.5417 182.705 27.6062 182.602 27.6503C182.499 27.6943 182.388 27.7172 182.276 27.7174H165.701C165.589 27.7218 165.477 27.7035 165.373 27.6637C165.268 27.6239 165.172 27.5634 165.091 27.4857C165.01 27.4081 164.946 27.3149 164.902 27.2118C164.858 27.1086 164.835 26.9977 164.835 26.8855V5.25453C164.833 5.14494 164.854 5.03621 164.895 4.93472C164.937 4.83323 164.998 4.74103 165.075 4.66353C165.153 4.58603 165.245 4.5248 165.347 4.48344C165.448 4.44208 165.557 4.42141 165.666 4.42266H182.276C182.385 4.42141 182.494 4.44208 182.596 4.48344C182.697 4.5248 182.789 4.58603 182.867 4.66353C182.944 4.74103 183.006 4.83323 183.047 4.93472C183.088 5.03621 183.109 5.14494 183.108 5.25453V7.71054C183.112 7.82249 183.094 7.93418 183.054 8.03891C183.014 8.14363 182.954 8.23923 182.876 8.31996C182.798 8.4007 182.705 8.46491 182.602 8.50874C182.499 8.55257 182.388 8.57512 182.276 8.57503L168.994 8.58202Z" fill="#212E32"/>
<path d="M210.834 5.2545L201.814 18.0355V26.8902C201.815 26.9997 201.794 27.1083 201.753 27.2096C201.711 27.311 201.65 27.403 201.573 27.4805C201.495 27.5579 201.403 27.6191 201.302 27.6606C201.201 27.7021 201.092 27.723 200.982 27.722H198.519C198.407 27.7264 198.296 27.7082 198.191 27.6684C198.086 27.6285 197.99 27.568 197.909 27.4903C197.828 27.4127 197.764 27.3195 197.72 27.2164C197.676 27.1133 197.653 27.0023 197.653 26.8902V18.0681L188.6 5.25217C188.492 5.12096 188.432 4.95623 188.432 4.78614C188.432 4.58574 188.6 4.4203 188.898 4.4203H192.727C193.193 4.4203 193.759 4.78614 194.092 5.25217L199.717 13.5359L205.342 5.24984C205.673 4.78381 206.239 4.41797 206.708 4.41797H210.501C210.834 4.41797 211 4.58341 211 4.81643C210.995 4.97688 210.937 5.13118 210.834 5.2545Z" fill="#212E32"/>
<path d="M16.1159 39.2024V53.4165C16.119 53.507 16.1039 53.5972 16.0715 53.6817C16.0391 53.7662 15.99 53.8434 15.9272 53.9086C15.8644 53.9738 15.7891 54.0257 15.7058 54.0613C15.6226 54.0968 15.533 54.1153 15.4425 54.1155H14.0444C13.9501 54.119 13.8564 54.099 13.7717 54.0573C13.6479 54.0048 13.5425 53.9168 13.4686 53.8044C13.3948 53.692 13.3559 53.5603 13.3569 53.4258V43.4899C10.0295 48.5953 8.55213 50.9465 8.03717 50.9605C7.5222 50.9745 6.10079 48.6956 2.75932 43.5762V53.4258C2.76032 53.5603 2.72147 53.692 2.64765 53.8044C2.57383 53.9168 2.46834 54.0048 2.34454 54.0573C2.25991 54.099 2.16623 54.119 2.07193 54.1155H0.673826C0.583286 54.1153 0.493728 54.0968 0.410458 54.0613C0.327188 54.0257 0.251889 53.9738 0.189075 53.9086C0.12626 53.8434 0.0771882 53.7662 0.0447756 53.6817C0.012363 53.5972 -0.00272024 53.507 0.000402199 53.4165V39.2024C0.000402199 39.0238 0.0713456 38.8525 0.197636 38.7262C0.323927 38.6 0.495224 38.529 0.673826 38.529H2.07193C2.21881 38.5232 2.36228 38.5741 2.47271 38.6711C2.503 38.6711 2.53097 38.7014 2.55893 38.7294C3.02496 39.1162 4.6957 41.698 8.03717 46.3141C11.3344 41.698 12.9562 39.2747 13.5574 38.7294C13.5574 38.7154 13.5573 38.7154 13.5713 38.7154C13.6144 38.6687 13.6691 38.6341 13.7298 38.6152C13.824 38.5564 13.9333 38.5264 14.0444 38.529H15.4425C15.5309 38.529 15.6185 38.5464 15.7002 38.5803C15.7819 38.6141 15.8561 38.6637 15.9186 38.7262C15.9812 38.7888 16.0308 38.863 16.0646 38.9447C16.0985 39.0264 16.1159 39.114 16.1159 39.2024Z" fill="#1B497A"/>
</svg>
