<svg width="33" height="22" viewBox="0 0 33 22" fill="none" xmlns="http://www.w3.org/2000/svg">
<path d="M17.5 8.5L11.0939 18.3083L0.541693 9.77137C5.80696 3.68013 9.5 0 9.5 0C17 6 17.5 8.5 17.5 8.5Z" fill="#D6452D"/>
<path d="M17.6701 10.2213L12.1556 18.6083C16.4025 15.5165 21.6678 14.4321 21.6678 14.4321L27.4964 3.56476L21.2452 6.73728C19.1543 7.74095 17.6701 10.2213 17.6701 10.2213Z" fill="#D6452D"/>
<path d="M13.5642 18.7261C13.4191 18.8076 13.2957 18.8769 13.1957 18.9313L23.8562 17.4777L30.2482 5.75669H27.4314L22.4153 15.4127C18.3628 16.0292 14.9589 17.9422 13.5642 18.7261Z" fill="#D6452D"/>
<path d="M0 14.1321L1.2784 11.6633L11.7439 20.1772L24.4412 18.4929L29.7282 8.77923H33L26.0446 22C20.0498 20.7897 17.545 20.9172 13.8778 21.1039C13.2107 21.1379 12.5051 21.1738 11.7331 21.204L0.845042 16.8778L1.77676 15.1012L0 14.1321Z" fill="#D6452D"/>
</svg>
